# xmcd
#
# Track frame offsets:
#	150
#	19617
#	34870
#	58935
#	88740
#	94199
#	107299
#	124913
#	138975
#
# Disc length: 2228 seconds
#
# Revision: 18
# Processed by: cddbd v1.5.2PL0 Copyright (c) Steve Scherf et al.
# Submitted via: Jack! The Knife 20 Magnifico
#
DISCID=7208b209
DTITLE=Steeler - Steeler
DYEAR=1983
DGENRE=Hard Rock
TTITLE0=Cold Day In Hell
TTITLE1=Backseat Driver
TTITLE2=No Way Out
TTITLE3=Hot On Your Heels
TTITLE4=Abduction
TTITLE5=On The Rox
TTITLE6=Down To The Wire
TTITLE7=Born To Rock
TTITLE8=Serenade
EXTD=Mike Varney
EXTT0=Ron Keel
EXTT1=Keel, Edwards
EXTT2=Keel, Edwards, Malmsteen
EXTT3=Ron Keel
EXTT4=Keel, Malmsteen, Fox
EXTT5=Keel, Edwards
EXTT6=Keel, Edwards
EXTT7=Keel, Edwards
EXTT8=Ron Keel
PLAYORDER=
